#!OML:ASF F:\VICON\USERDATA\INSTALL\rory3\rory3.ASF
:FULLY-SPECIFIED
:DEGREES
762
root -0.0481142 16.9375 17.2548 -159.378 -28.7635 -176.009
lowerback -13.9075 2.15041 1.5873
upperback -8.6547 1.62697 2.27368
thorax -1.33827 0.363442 1.69149
lowerneck -13.9201 -1.68991 -3.62989
upperneck 37.8084 -5.05601 0.763718
head 15.8304 -3.61423 -0.201681
rclavicle 3.8676e-014 -7.95139e-016
rhumerus -77.5451 40.4842 -123.26
rradius 50.8058
rwrist -39.4481
rhand 21.6999 -2.6153
rfingers 7.12502
rthumb 46.1153 -25.6617
lclavicle 3.8676e-014 -7.95139e-016
lhumerus -63.3133 -19.545 102.771
lradius 42.8874
lwrist 11.7343
lhand 26.4351 20.6733
lfingers 7.12502
lthumb 50.4753 41.6429
rfemur -31.3923 1.48443 36.261
rtibia 27.8765
rfoot -35.9096 -30.5665
rtoes 34.9375
lfemur -26.0333 28.7664 -23.0119
ltibia 55.1125
lfoot 36.873 34.5985
ltoes 26.3192
763
root -0.0509168 16.9369 17.2575 -159.051 -28.7948 -175.765
lowerback -14.3755 2.22625 1.80767
upperback -8.72649 1.65128 2.33646
thorax -1.16228 0.353469 1.64722
lowerneck -13.8588 -1.72929 -3.5978
upperneck 37.7861 -5.10381 0.689652
head 15.802 -3.64097 -0.245221
rclavicle -4.34841e-015 -9.93923e-015
rhumerus -77.573 40.6001 -123.355
rradius 50.8178
rwrist -39.4528
rhand 21.365 -2.36235
rfingers 7.12502
rthumb 45.8045 -25.5378
lclavicle -4.34841e-015 -9.93923e-015
lhumerus -63.1871 -19.4377 102.7
lradius 42.7457
lwrist 11.6791
lhand 26.2874 20.432
lfingers 7.12502
lthumb 50.3404 41.4741
rfemur -31.8632 1.8413 36.3819
rtibia 27.8139
rfoot -35.9445 -30.7143
rtoes 35.128
lfemur -26.745 28.4776 -23.0419
ltibia 55.2281
lfoot 37.5187 34.1361
ltoes 24.3922
764
root -0.0521677 16.9374 17.2598 -158.873 -28.7397 -175.863
lowerback -14.4889 2.16642 1.67981
upperback -8.68418 1.58216 2.39448
thorax -1.06222 0.325742 1.77331
lowerneck -14.0522 -1.68467 -3.65208
upperneck 37.8731 -5.00444 0.664229
head 15.8908 -3.60793 -0.236505
rclavicle -1.48964e-014 -4.37326e-014
rhumerus -77.8715 41.0352 -123.775
rradius 50.8986
rwrist -39.7081
rhand 20.9819 -2.42323
rfingers 7.12502
rthumb 45.4487 -25.7438
lclavicle -1.48964e-014 -4.37326e-014
lhumerus -62.9368 -19.1325 102.528
lradius 42.5745
lwrist 11.5875
lhand 25.9412 19.811
lfingers 7.12502
lthumb 50.0239 41.0212
rfemur -31.9993 1.97753 36.2405
rtibia 27.7784
rfoot -35.9353 -30.8254
rtoes 35.1909
lfemur -26.9659 28.3695 -23.2209
ltibia 55.2399
lfoot 39.4263 32.1863
ltoes 20.1861
765
root -0.0535967 16.9362 17.2621 -158.83 -28.533 -175.891
lowerback -14.4834 2.19386 1.62005
upperback -8.63475 1.6299 2.41839
thorax -1.01628 0.355101 1.83823
lowerneck -14.1163 -1.65426 -3.71521
upperneck 37.8901 -4.94719 0.699086
head 15.9165 -3.58647 -0.202255
rclavicle -7.45443e-017 2.26615e-014
rhumerus -77.7921 41.2049 -123.775
rradius 50.917
rwrist -39.9238
rhand 21.0931 -2.88722
rfingers 7.12502
rthumb 45.552 -26.166
lclavicle -7.45443e-017 2.26615e-014
lhumerus -62.7295 -18.8487 102.291
lradius 42.4908
lwrist 11.5322
lhand 25.7818 19.3349
lfingers 7.12502
lthumb 49.878 40.6215
rfemur -32.0214 2.11964 36.1551
rtibia 27.7716
rfoot -35.7938 -30.8834
rtoes 35.3884
lfemur -26.9874 28.4639 -23.2909
ltibia 55.2237
lfoot 40.1598 31.4774
ltoes 18.725
766
root -0.0560001 16.9354 17.2636 -158.839 -28.321 -175.856
lowerback -14.4735 2.24012 1.6125
upperback -8.58824 1.69542 2.44457
thorax -0.974711 0.390938 1.87851
lowerneck -13.9921 -1.66076 -3.67893
upperneck 37.7847 -4.94349 0.651086
head 15.8297 -3.58525 -0.222014
rclavicle -4.03284e-014 -2.46493e-014
rhumerus -77.438 41.1187 -123.401
rradius 50.8987
rwrist -39.7702
rhand 21.7537 -3.6038
rfingers 7.12502
rthumb 46.1651 -26.6293
lclavicle -4.03284e-014 -2.46493e-014
lhumerus -62.7028 -18.6402 102.118
lradius 42.6828
lwrist 11.6395
lhand 25.8672 19.5579
lfingers 7.12502
lthumb 49.9561 40.8037
rfemur -32.0313 2.33387 36.1008
rtibia 27.7974
rfoot -35.7775 -30.9603
rtoes 35.4369
lfemur -26.9438 28.5971 -23.3079
ltibia 55.156
lfoot 40.4297 31.2645
ltoes 18.5029
